<svg xmlns="http://www.w3.org/2000/svg" xmlns:xlink="http://www.w3.org/1999/xlink" width="1080" zoomAndPan="magnify" viewBox="0 0 810 809.999993" height="1080" preserveAspectRatio="xMidYMid meet" version="1.0"><path fill="#da654b" d="M 569.753906 0 L 405 405 L 535.570312 0 Z M 719.929688 0 L 405 405 L 771.28125 0 Z M 771.28125 810 L 405 405 L 719.929688 810 Z M 569.753906 810 L 405 405 L 535.570312 810 Z M 420.066406 810 L 405 405 L 389.933594 810 Z M 274.429688 810 L 405 405 L 240.246094 810 Z M 90.070312 810 L 405 405 L 38.71875 810 Z M 38.71875 0 L 405 405 L 90.070312 0 Z M 240.246094 0 L 405 405 L 274.429688 0 Z M 389.933594 0 L 405 405 L 420.066406 0 Z M 810 38.878906 L 405 405 L 810 90.234375 Z M 810 240.40625 L 405 405 L 810 274.429688 Z M 810 390.097656 L 405 405 L 810 420.066406 Z M 810 535.734375 L 405 405 L 810 569.753906 Z M 810 720.089844 L 405 405 L 810 771.445312 Z M 0 771.121094 L 405 405 L 0 719.765625 Z M 0 569.59375 L 405 405 L 0 535.570312 Z M 0 419.902344 L 405 405 L 0 389.933594 Z M 0 274.265625 L 405 405 L 0 240.246094 Z M 0 89.910156 L 405 405 L 0 38.554688 Z M 0 89.910156 " fill-opacity="1" fill-rule="nonzero"/><path fill="#f0a94d" d="M 810 190.835938 L 405 405 L 810 150.660156 Z M 810 318.007812 L 405 405 L 810 348.949219 Z M 810 461.050781 L 405 405 L 810 491.992188 Z M 810 619.164062 L 405 405 L 810 659.339844 Z M 0 659.339844 L 405 405 L 0 619.164062 Z M 0 491.992188 L 405 405 L 0 461.050781 Z M 0 348.949219 L 405 405 L 0 318.007812 Z M 0 190.835938 L 405 405 L 0 150.660156 Z M 619.324219 0 L 405 405 L 659.503906 0 Z M 659.179688 810 L 405 405 L 619.164062 810 Z M 491.992188 810 L 405 405 L 460.890625 810 Z M 348.949219 810 L 405 405 L 317.84375 810 Z M 190.675781 810 L 405 405 L 150.496094 810 Z M 150.820312 0 L 405 405 L 190.835938 0 Z M 318.007812 0 L 405 405 L 349.109375 0 Z M 461.050781 0 L 405 405 L 492.15625 0 Z M 461.050781 0 " fill-opacity="1" fill-rule="nonzero"/></svg>